<svg xmlns="http://www.w3.org/2000/svg" viewBox="0 0 600 520" role="img" aria-label="Data centers, AI infrastructure, and renewable inverters">
  <defs>
    <linearGradient id="bg2" x1="0" y1="0" x2="0" y2="1">
      <stop offset="0" stop-color="#fbf6ea"></stop>
      <stop offset="1" stop-color="#f0e7d2"></stop>
    </linearGradient>
    <pattern id="grid2" width="20" height="20" patternUnits="userSpaceOnUse">
      <path d="M 20 0 L 0 0 0 20" fill="none" stroke="#c9bca0" stroke-width="0.4" opacity="0.6"></path>
    </pattern>
    <g id="inv2">
      <rect x="-12" y="-12" width="24" height="24" fill="#fbf6ea" stroke="#221913" stroke-width="1.3"></rect>
      <line x1="-9" y1="-5" x2="-1" y2="-5" stroke="#221913" stroke-width="1"></line>
      <line x1="-9" y1="-2" x2="-1" y2="-2" stroke="#221913" stroke-width="1" stroke-dasharray="2 2"></line>
      <path d="M2 5 Q 4 -3 6 5 T 10 5" stroke="#8a3a1f" stroke-width="1.2" fill="none"></path>
    </g>
  </defs>

  <rect width="600" height="520" fill="url(#bg2)"></rect>
  <rect width="600" height="520" fill="url(#grid2)"></rect>

  
  <g transform="translate(40 60)">
    <text x="0" y="-6" font-family="Inter, sans-serif" font-size="10" font-weight="600" fill="#221913" letter-spacing="0.12em">SOLAR PV</text>
    <g stroke="#221913" stroke-width="1" fill="#fbf6ea">
      <rect x="0" y="0" width="60" height="36"></rect>
      <line x1="20" y1="0" x2="20" y2="36"></line>
      <line x1="40" y1="0" x2="40" y2="36"></line>
      <line x1="0" y1="12" x2="60" y2="12"></line>
      <line x1="0" y1="24" x2="60" y2="24"></line>
    </g>
    <g fill="#221913" opacity="0.18">
      <rect x="0" y="0" width="20" height="12"></rect>
      <rect x="40" y="0" width="20" height="12"></rect>
      <rect x="20" y="12" width="20" height="12"></rect>
      <rect x="0" y="24" width="20" height="12"></rect>
      <rect x="40" y="24" width="20" height="12"></rect>
    </g>
    <line x1="10" y1="36" x2="30" y2="54" stroke="#221913" stroke-width="1"></line>
    <line x1="50" y1="36" x2="30" y2="54" stroke="#221913" stroke-width="1"></line>
    <line x1="60" y1="22" x2="118" y2="22" stroke="#221913" stroke-width="1"></line>
    <use href="#inv2" transform="translate(134 22)"></use>
    <text x="124" y="50" font-family="Inter, sans-serif" font-size="9" fill="#221913" letter-spacing="0.04em">PV inverter</text>
  </g>

  
  <g transform="translate(380 60)">
    <text x="120" y="-6" font-family="Inter, sans-serif" font-size="10" font-weight="600" fill="#221913" letter-spacing="0.12em">WIND</text>
    <line x1="170" y1="26" x2="170" y2="76" stroke="#221913" stroke-width="2"></line>
    <circle cx="170" cy="26" r="3" fill="#221913"></circle>
    <g stroke="#221913" stroke-width="1.6" stroke-linecap="round" fill="none">
      <path d="M170 26 L 170 -4"></path>
      <path d="M170 26 L 194 40"></path>
      <path d="M170 26 L 146 40"></path>
    </g>
    <line x1="162" y1="76" x2="178" y2="76" stroke="#221913" stroke-width="1.4"></line>
    <line x1="170" y1="62" x2="120" y2="40" stroke="#221913" stroke-width="1"></line>
    <use href="#inv2" transform="translate(100 40)"></use>
    <text x="68" y="68" font-family="Inter, sans-serif" font-size="9" fill="#221913" letter-spacing="0.04em">Wind inverter</text>
  </g>

  
  <g transform="translate(70 220)">
    <text x="0" y="-6" font-family="Inter, sans-serif" font-size="10" font-weight="600" fill="#221913" letter-spacing="0.12em">BESS</text>
    <rect x="0" y="0" width="48" height="34" fill="#fbf6ea" stroke="#221913" stroke-width="1.2"></rect>
    <g>
      <rect x="3" y="4" width="12" height="26" fill="#8a3a1f" opacity="0.65"></rect>
      <rect x="18" y="4" width="12" height="26" fill="#8a3a1f" opacity="0.4"></rect>
      <rect x="33" y="4" width="12" height="26" fill="#8a3a1f" opacity="0.22"></rect>
    </g>
    <line x1="48" y1="17" x2="100" y2="17" stroke="#221913" stroke-width="1"></line>
    <use href="#inv2" transform="translate(116 17)"></use>
    <text x="106" y="42" font-family="Inter, sans-serif" font-size="9" fill="#221913" letter-spacing="0.04em">DC/AC</text>
  </g>

  
  <g>
    <text x="300" y="208" text-anchor="middle" font-family="Inter, sans-serif" font-size="10" font-weight="600" fill="#221913" letter-spacing="0.12em">PCC · GRID-FORMING CONVERTER</text>
    <g transform="translate(245 220)">
      <g stroke="#221913" stroke-width="1.2" fill="none">
        <rect x="14" y="14" width="20" height="20"></rect>
        <rect x="46" y="14" width="20" height="20"></rect>
        <rect x="78" y="14" width="20" height="20"></rect>
        <rect x="14" y="44" width="20" height="20"></rect>
        <rect x="46" y="44" width="20" height="20"></rect>
        <rect x="78" y="44" width="20" height="20"></rect>
        <line x1="16" y1="30" x2="32" y2="18"></line>
        <line x1="48" y1="30" x2="64" y2="18"></line>
        <line x1="80" y1="30" x2="96" y2="18"></line>
        <line x1="16" y1="60" x2="32" y2="48"></line>
        <line x1="48" y1="60" x2="64" y2="48"></line>
        <line x1="80" y1="60" x2="96" y2="48"></line>
      </g>
    </g>
    <g fill="none" stroke="#8a3a1f" stroke-width="1" stroke-dasharray="3 4" opacity="0.65">
      <circle cx="300" cy="260" r="78"></circle>
      <circle cx="300" cy="260" r="110"></circle>
    </g>
    <text x="300" y="378" text-anchor="middle" font-family="Inter, sans-serif" font-size="9" fill="#8a3a1f" letter-spacing="0.08em">decentralized stability margin</text>
  </g>

  
  <g transform="translate(430 240)">
    <text x="0" y="-6" font-family="Inter, sans-serif" font-size="10" font-weight="600" fill="#221913" letter-spacing="0.12em">XFMR</text>
    <g fill="none" stroke="#221913" stroke-width="1.4">
      <circle cx="12" cy="20" r="10"></circle>
      <circle cx="26" cy="20" r="10"></circle>
    </g>
    <line x1="-4" y1="20" x2="2" y2="20" stroke="#221913" stroke-width="1"></line>
    <line x1="36" y1="20" x2="48" y2="20" stroke="#221913" stroke-width="1"></line>
  </g>

  
  <g transform="translate(60 410)">
    <text x="0" y="-6" font-family="Inter, sans-serif" font-size="10" font-weight="600" fill="#221913" letter-spacing="0.12em">DATA CENTER · AI INFRA</text>
    <g transform="translate(0 0)">
      <rect width="40" height="86" fill="#fbf6ea" stroke="#221913" stroke-width="1.2" rx="2"></rect>
      <g fill="none" stroke="#221913" stroke-width="0.6">
        <rect x="4" y="6" width="32" height="6"></rect>
        <rect x="4" y="16" width="32" height="10"></rect>
        <rect x="4" y="30" width="32" height="6"></rect>
        <rect x="4" y="40" width="32" height="10"></rect>
        <rect x="4" y="54" width="32" height="6"></rect>
        <rect x="4" y="64" width="32" height="6"></rect>
        <rect x="4" y="74" width="32" height="8"></rect>
      </g>
      <g fill="#8a3a1f"><circle cx="8" cy="21" r="0.9"></circle><circle cx="8" cy="45" r="0.9"></circle></g>
    </g>
    <g transform="translate(50 0)">
      <rect width="40" height="86" fill="#fbf6ea" stroke="#221913" stroke-width="1.2" rx="2"></rect>
      <g fill="none" stroke="#221913" stroke-width="0.6">
        <rect x="4" y="6" width="32" height="10"></rect>
        <rect x="4" y="20" width="32" height="6"></rect>
        <rect x="4" y="30" width="32" height="10"></rect>
        <rect x="4" y="44" width="32" height="6"></rect>
        <rect x="4" y="54" width="32" height="10"></rect>
        <rect x="4" y="68" width="32" height="6"></rect>
        <rect x="4" y="78" width="32" height="6"></rect>
      </g>
      <g fill="#8a3a1f"><circle cx="8" cy="11" r="0.9"></circle><circle cx="8" cy="35" r="0.9"></circle></g>
    </g>
    <g transform="translate(100 0)">
      <rect width="40" height="86" fill="#fbf6ea" stroke="#221913" stroke-width="1.2" rx="2"></rect>
      <g fill="none" stroke="#221913" stroke-width="0.6">
        <rect x="4" y="6" width="32" height="6"></rect>
        <rect x="4" y="16" width="32" height="6"></rect>
        <rect x="4" y="26" width="32" height="10"></rect>
        <rect x="4" y="40" width="32" height="6"></rect>
        <rect x="4" y="50" width="32" height="10"></rect>
        <rect x="4" y="64" width="32" height="6"></rect>
        <rect x="4" y="74" width="32" height="8"></rect>
      </g>
    </g>
  </g>

  
  <g transform="translate(370 410)">
    <text x="0" y="-6" font-family="Inter, sans-serif" font-size="10" font-weight="600" fill="#221913" letter-spacing="0.12em">AC GRID BUS · 60 Hz</text>
    <rect width="170" height="86" fill="#fbf6ea" stroke="#221913" stroke-width="1.2"></rect>
    <line x1="0" y1="43" x2="170" y2="43" stroke="#221913" stroke-width="0.8" stroke-dasharray="3 3"></line>
    <path d="M10 50 Q 24 22, 38 50 T 66 50 T 94 50 T 122 50 T 150 50" stroke="#8a3a1f" stroke-width="1.6" fill="none"></path>
    <g stroke="#221913" stroke-width="1" fill="none">
      <path d="M155 32 L 162 32 L 162 28"></path>
      <path d="M155 64 L 162 64 L 162 68"></path>
    </g>
    <text x="135" y="74" font-family="Inter, sans-serif" font-size="8" fill="#8a7b66" letter-spacing="0.06em">to grid</text>
  </g>

  
  <g stroke="#221913" stroke-width="1" fill="none">
    
    <path d="M186 96 L 186 200 L 280 200 L 280 220"></path>
    
    <path d="M484 116 L 484 200 L 320 200 L 320 220"></path>
    
    <path d="M210 250 L 245 250"></path>
    
    <path d="M355 260 L 430 260"></path>
    <path d="M480 260 L 510 260 L 510 410"></path>
    
    <path d="M280 300 L 280 380 L 165 380 L 165 410"></path>
  </g>
</svg>