<svg xmlns="http://www.w3.org/2000/svg" viewBox="0 0 600 520" role="img" aria-label="Grid flexibility, resilience, and demand response">
  <defs>
    <linearGradient id="bg1" x1="0" y1="0" x2="0" y2="1">
      <stop offset="0" stop-color="#fbf6ea"></stop>
      <stop offset="1" stop-color="#f0e7d2"></stop>
    </linearGradient>
    <pattern id="dots1" width="14" height="14" patternUnits="userSpaceOnUse">
      <circle cx="7" cy="7" r="0.5" fill="#8a7b66" opacity="0.4"></circle>
    </pattern>
  </defs>

  <rect width="600" height="520" fill="url(#bg1)"></rect>
  <rect width="600" height="520" fill="url(#dots1)"></rect>

  
  <g font-family="Inter, sans-serif" font-size="10" fill="#221913" letter-spacing="0.08em">
    <text x="40" y="30" font-weight="600" letter-spacing="0.18em">FLEXIBILITY · DER AGGREGATION</text>
  </g>

  
  <g stroke="#5a4632" stroke-width="0.7" fill="none" opacity="0.7">
    <line x1="300" y1="148" x2="90" y2="80"></line>
    <line x1="300" y1="148" x2="180" y2="70"></line>
    <line x1="300" y1="148" x2="300" y2="70"></line>
    <line x1="300" y1="148" x2="420" y2="70"></line>
    <line x1="300" y1="148" x2="510" y2="80"></line>
    <line x1="300" y1="148" x2="60" y2="158"></line>
    <line x1="300" y1="148" x2="540" y2="158"></line>
    <line x1="300" y1="148" x2="90" y2="230"></line>
    <line x1="300" y1="148" x2="200" y2="240"></line>
    <line x1="300" y1="148" x2="300" y2="240"></line>
    <line x1="300" y1="148" x2="400" y2="240"></line>
    <line x1="300" y1="148" x2="510" y2="230"></line>
  </g>

  
  
  <g transform="translate(75 65)">
    <g stroke="#221913" stroke-width="1" fill="#fbf6ea">
      <path d="M-12 6 L-12 -2 L0 -10 L12 -2 L12 6 Z"></path>
    </g>
    <rect x="-6" y="-6" width="9" height="6" fill="#221913" opacity="0.55"></rect>
    <text y="22" text-anchor="middle" font-family="Inter, sans-serif" font-size="8" fill="#221913" letter-spacing="0.06em">PV prosumer</text>
  </g>
  
  <g transform="translate(180 60)">
    <line x1="0" y1="6" x2="0" y2="-2" stroke="#221913" stroke-width="1.4"></line>
    <circle cx="0" cy="-3" r="1.6" fill="#221913"></circle>
    <g stroke="#221913" stroke-width="1.2" stroke-linecap="round" fill="none">
      <path d="M0 -3 L 0 -14"></path>
      <path d="M0 -3 L 9 1"></path>
      <path d="M0 -3 L -9 1"></path>
    </g>
    <line x1="-4" y1="6" x2="4" y2="6" stroke="#221913" stroke-width="1"></line>
    <text y="22" text-anchor="middle" font-family="Inter, sans-serif" font-size="8" fill="#221913" letter-spacing="0.06em">Wind</text>
  </g>
  
  <g transform="translate(300 60)">
    <rect x="-10" y="-6" width="20" height="12" fill="#fbf6ea" stroke="#221913" stroke-width="1"></rect>
    <line x1="-4" y1="-2" x2="-4" y2="2" stroke="#221913" stroke-width="1"></line>
    <line x1="0" y1="-2" x2="0" y2="2" stroke="#221913" stroke-width="1"></line>
    <line x1="4" y1="-2" x2="4" y2="2" stroke="#221913" stroke-width="1"></line>
    <text y="22" text-anchor="middle" font-family="Inter, sans-serif" font-size="8" fill="#221913" letter-spacing="0.06em">Substation</text>
  </g>
  
  <g transform="translate(420 60)">
    <rect x="-5" y="-8" width="10" height="14" fill="#fbf6ea" stroke="#221913" stroke-width="1"></rect>
    <path d="M-2 -4 L 1 -2 L -1 -1 L 2 1" stroke="#8a3a1f" stroke-width="1" fill="none"></path>
    <line x1="3" y1="-3" x2="6" y2="-3" stroke="#221913" stroke-width="1"></line>
    <rect x="6" y="-5" width="2" height="4" fill="#221913"></rect>
    <text y="22" text-anchor="middle" font-family="Inter, sans-serif" font-size="8" fill="#221913" letter-spacing="0.06em">EV</text>
  </g>
  
  <g transform="translate(510 70)">
    <rect x="-10" y="-6" width="20" height="12" fill="#fbf6ea" stroke="#221913" stroke-width="1"></rect>
    <rect x="-9" y="-4" width="5" height="8" fill="#8a3a1f" opacity="0.6"></rect>
    <rect x="-3" y="-4" width="5" height="8" fill="#8a3a1f" opacity="0.4"></rect>
    <rect x="3" y="-4" width="5" height="8" fill="#8a3a1f" opacity="0.2"></rect>
    <text y="22" text-anchor="middle" font-family="Inter, sans-serif" font-size="8" fill="#221913" letter-spacing="0.06em">BESS</text>
  </g>

  
  <g transform="translate(60 158)">
    <path d="M-8 4 L-8 -2 L0 -8 L8 -2 L8 4 Z" fill="#fbf6ea" stroke="#221913" stroke-width="0.9"></path>
  </g>
  <g transform="translate(540 158)">
    <path d="M-8 4 L-8 -2 L0 -8 L8 -2 L8 4 Z" fill="#fbf6ea" stroke="#221913" stroke-width="0.9"></path>
  </g>
  <g transform="translate(90 230)">
    <path d="M-8 4 L-8 -2 L0 -8 L8 -2 L8 4 Z" fill="#fbf6ea" stroke="#221913" stroke-width="0.9"></path>
  </g>
  <g transform="translate(200 240)">
    <path d="M-8 4 L-8 -2 L0 -8 L8 -2 L8 4 Z" fill="#fbf6ea" stroke="#221913" stroke-width="0.9"></path>
  </g>
  <g transform="translate(300 240)">
    <path d="M-8 4 L-8 -2 L0 -8 L8 -2 L8 4 Z" fill="#fbf6ea" stroke="#221913" stroke-width="0.9"></path>
  </g>
  <g transform="translate(400 240)">
    <path d="M-8 4 L-8 -2 L0 -8 L8 -2 L8 4 Z" fill="#fbf6ea" stroke="#221913" stroke-width="0.9"></path>
  </g>
  <g transform="translate(510 230)">
    <path d="M-8 4 L-8 -2 L0 -8 L8 -2 L8 4 Z" fill="#fbf6ea" stroke="#221913" stroke-width="0.9"></path>
  </g>

  
  <g>
    <circle cx="300" cy="148" r="22" fill="#fbf6ea" stroke="#8a3a1f" stroke-width="2"></circle>
    <circle cx="300" cy="148" r="10" fill="#8a3a1f"></circle>
    <text x="334" y="152" font-family="Inter, sans-serif" font-size="10" font-weight="600" fill="#221913" letter-spacing="0.12em">VPP · AGGREGATOR</text>
  </g>

  
  <g stroke="#8a3a1f" stroke-width="1.2" fill="none" stroke-dasharray="3 4">
    <path d="M300 170 L 300 280"></path>
  </g>
  <polygon points="296 280 304 280 300 290" fill="#8a3a1f"></polygon>
  <text x="306" y="230" font-family="Inter, sans-serif" font-size="9" fill="#8a3a1f" letter-spacing="0.08em">DR signal</text>

  
  <g transform="translate(40 300)">
    <text x="0" y="-4" font-family="Inter, sans-serif" font-size="10" font-weight="600" fill="#221913" letter-spacing="0.18em">DEMAND RESPONSE · LOAD RESHAPING</text>

    <rect width="520" height="190" fill="#fbf6ea" stroke="#221913" stroke-width="1.2"></rect>

    
    <g stroke="#8a7b66" stroke-width="0.8">
      <line x1="46" y1="30" x2="46" y2="160"></line>
      <line x1="46" y1="160" x2="500" y2="160"></line>
    </g>
    <g stroke="#c9bca0" stroke-width="0.5" stroke-dasharray="2 4">
      <line x1="46" y1="60" x2="500" y2="60"></line>
      <line x1="46" y1="90" x2="500" y2="90"></line>
      <line x1="46" y1="120" x2="500" y2="120"></line>
    </g>
    <text x="14" y="38" font-family="JetBrains Mono, monospace" font-size="9" fill="#8a7b66" letter-spacing="0.06em">P(t)</text>
    <text x="468" y="174" font-family="JetBrains Mono, monospace" font-size="9" fill="#8a7b66" letter-spacing="0.06em">time</text>

    
    <path d="M46 140 L 90 130 L 130 110 L 170 80 L 210 65 L 250 60 L 290 65 L 330 72 L 370 90 L 410 110 L 450 126 L 500 140" stroke="#8a3a1f" stroke-width="1.4" fill="none" stroke-dasharray="4 4"></path>

    
    <line x1="250" y1="30" x2="250" y2="160" stroke="#8a3a1f" stroke-width="1" stroke-dasharray="3 3" opacity="0.65"></line>
    <g stroke="#8a3a1f" stroke-width="1.4" fill="none">
      <path d="M230 24 L 242 24 L 242 16 L 270 16 L 270 24 L 282 24"></path>
    </g>
    <text x="286" y="22" font-family="Inter, sans-serif" font-size="9" fill="#8a3a1f" letter-spacing="0.06em">DR pulse</text>

    
    <path d="M46 140 L 90 130 L 130 110 L 170 80 L 210 65 L 250 60 L 255 95 L 280 115 L 310 110 L 350 102 L 390 110 L 430 122 L 470 132 L 500 140" stroke="#221913" stroke-width="2" fill="none"></path>

    
    <path d="M250 60 L 255 95 L 280 115 L 310 110 L 350 102 L 390 110 L 430 122 L 470 132 L 500 140&#xA;             L 500 140 L 450 126 L 410 110 L 370 90 L 330 72 L 290 65 L 250 60 Z" fill="#8a3a1f" opacity="0.1"></path>

    
    <g font-family="Inter, sans-serif" font-size="9" fill="#221913">
      <line x1="320" y1="46" x2="340" y2="46" stroke="#8a3a1f" stroke-width="1.4" stroke-dasharray="4 4"></line>
      <text x="344" y="49">baseline (no DR)</text>
      <line x1="420" y1="46" x2="440" y2="46" stroke="#221913" stroke-width="2"></line>
      <text x="444" y="49">with DR</text>
    </g>
  </g>
</svg>