<svg xmlns="http://www.w3.org/2000/svg" viewBox="0 0 600 520" role="img" aria-label="AI for Energy System Science and Engineering">
  <defs>
    <linearGradient id="bg3" x1="0" y1="0" x2="0" y2="1">
      <stop offset="0" stop-color="#fbf6ea"></stop>
      <stop offset="1" stop-color="#f0e7d2"></stop>
    </linearGradient>
    <pattern id="dots3" width="14" height="14" patternUnits="userSpaceOnUse">
      <circle cx="7" cy="7" r="0.5" fill="#8a7b66" opacity="0.35"></circle>
    </pattern>
    <g id="domain3">
      <circle r="20" fill="#fbf6ea" stroke="#221913" stroke-width="1.2"></circle>
    </g>
  </defs>

  <rect width="600" height="520" fill="url(#bg3)"></rect>
  <rect width="600" height="520" fill="url(#dots3)"></rect>

  
  <text x="40" y="30" font-family="Inter, sans-serif" font-size="10" font-weight="600" fill="#221913" letter-spacing="0.18em">AI · MULTI-DOMAIN FOUNDATION MODEL</text>

  
  <g transform="translate(80 110)">
    <g transform="translate(0 0)">
      <use href="#domain3"></use>
      
      <g stroke="#221913" stroke-width="1.1" fill="none">
        <circle cx="-3" cy="-2" r="5"></circle>
        <path d="M-9 5 a5 4 0 0 1 5 -4 a5 4 0 0 1 5 -2 a5 5 0 0 1 6 6 z" fill="#fbf6ea"></path>
      </g>
      <text x="0" y="38" text-anchor="middle" font-family="Inter, sans-serif" font-size="10" font-weight="600" fill="#221913" letter-spacing="0.06em">Climate</text>
    </g>
    <g transform="translate(0 140)">
      <use href="#domain3"></use>
      <path d="M0 -10 C 8 -2, 8 6, 0 8 C -8 6, -8 -2, 0 -10 Z" fill="#fbf6ea" stroke="#221913" stroke-width="1.1"></path>
      <path d="M-10 12 Q -5 8 0 12 T 10 12" stroke="#221913" stroke-width="1" fill="none"></path>
      <text x="0" y="38" text-anchor="middle" font-family="Inter, sans-serif" font-size="10" font-weight="600" fill="#221913" letter-spacing="0.06em">Hydrology</text>
    </g>
    <g transform="translate(0 280)">
      <use href="#domain3"></use>
      <g stroke="#221913" stroke-width="1.1" fill="none">
        <circle cx="0" cy="0" r="6"></circle>
        <line x1="-9" y1="-9" x2="-3" y2="-3"></line>
        <line x1="9" y1="-9" x2="3" y2="-3"></line>
        <line x1="-9" y1="9" x2="-3" y2="3"></line>
        <line x1="9" y1="9" x2="3" y2="3"></line>
      </g>
      <text x="0" y="38" text-anchor="middle" font-family="Inter, sans-serif" font-size="10" font-weight="600" fill="#221913" letter-spacing="0.06em">Grid ops</text>
    </g>
  </g>

  
  <text x="80" y="86" text-anchor="middle" font-family="Inter, sans-serif" font-size="9" fill="#8a7b66" letter-spacing="0.12em">CROSS-DOMAIN DATA</text>

  
  <g transform="translate(520 110)">
    <g transform="translate(0 0)">
      <use href="#domain3"></use>
      <g stroke="#221913" stroke-width="1.1" fill="none">
        <line x1="-8" y1="6" x2="-8" y2="-2"></line>
        <rect x="-11" y="-4" width="6" height="6" fill="#fbf6ea"></rect>
        <line x1="0" y1="6" x2="0" y2="-6"></line>
        <rect x="-3" y="-8" width="6" height="10" fill="#221913"></rect>
        <line x1="8" y1="6" x2="8" y2="-4"></line>
        <rect x="5" y="-6" width="6" height="4" fill="#fbf6ea"></rect>
      </g>
      <text x="0" y="38" text-anchor="middle" font-family="Inter, sans-serif" font-size="10" font-weight="600" fill="#221913" letter-spacing="0.06em">Markets</text>
    </g>
    <g transform="translate(0 140)">
      <use href="#domain3"></use>
      <g stroke="#221913" stroke-width="1.1" fill="none">
        <rect x="-10" y="-6" width="12" height="10"></rect>
        <line x1="2" y1="-1" x2="10" y2="-1"></line>
        <line x1="-14" y1="-1" x2="-10" y2="-1"></line>
        <path d="M10 -1 C 10 8, -10 8, -10 4" stroke-dasharray="2 2"></path>
      </g>
      <text x="0" y="38" text-anchor="middle" font-family="Inter, sans-serif" font-size="10" font-weight="600" fill="#221913" letter-spacing="0.06em">Control</text>
    </g>
    <g transform="translate(0 280)">
      <use href="#domain3"></use>
      <g fill="#221913">
        <circle cx="-7" cy="-3" r="2.8"></circle><circle cx="0" cy="-5" r="2.8"></circle><circle cx="7" cy="-3" r="2.8"></circle>
        <path d="M-11 8 Q -7 2 -3 8 Z"></path><path d="M-4 8 Q 0 2 4 8 Z"></path><path d="M3 8 Q 7 2 11 8 Z"></path>
      </g>
      <text x="0" y="38" text-anchor="middle" font-family="Inter, sans-serif" font-size="10" font-weight="600" fill="#221913" letter-spacing="0.06em">Users</text>
    </g>
  </g>

  
  <text x="520" y="86" text-anchor="middle" font-family="Inter, sans-serif" font-size="9" fill="#8a7b66" letter-spacing="0.12em">DECISIONS · INTERFACES</text>

  
  <g transform="translate(300 270)">
    
    <rect x="-80" y="-90" width="160" height="180" fill="#fbf6ea" stroke="#221913" stroke-width="1.4"></rect>
    <text x="0" y="-72" text-anchor="middle" font-family="Inter, sans-serif" font-size="10" font-weight="600" fill="#221913" letter-spacing="0.12em">FOUNDATION MODEL</text>

    
    <g font-family="JetBrains Mono, monospace" font-size="7.5" fill="#8a7b66" letter-spacing="0.08em">
      <text x="-72" y="-44">in</text>
      <text x="-72" y="-12">attn</text>
      <text x="-72" y="20">mlp</text>
      <text x="-72" y="52">out</text>
    </g>

    
    <g fill="#221913">
      <circle cx="-44" cy="-48" r="2.6"></circle><circle cx="-22" cy="-48" r="2.6"></circle><circle cx="0" cy="-48" r="2.6"></circle>
      <circle cx="22" cy="-48" r="2.6"></circle><circle cx="44" cy="-48" r="2.6"></circle>
      <circle cx="-44" cy="-16" r="2.6"></circle><circle cx="-22" cy="-16" r="2.6"></circle><circle cx="0" cy="-16" r="2.6"></circle>
      <circle cx="22" cy="-16" r="2.6"></circle><circle cx="44" cy="-16" r="2.6"></circle>
      <circle cx="-44" cy="16" r="2.6"></circle><circle cx="-22" cy="16" r="2.6"></circle><circle cx="0" cy="16" r="2.6"></circle>
      <circle cx="22" cy="16" r="2.6"></circle><circle cx="44" cy="16" r="2.6"></circle>
      <circle cx="-44" cy="48" r="2.6"></circle><circle cx="-22" cy="48" r="2.6"></circle><circle cx="0" cy="48" r="2.6"></circle>
      <circle cx="22" cy="48" r="2.6"></circle><circle cx="44" cy="48" r="2.6"></circle>
    </g>
    
    <g stroke="#221913" stroke-width="0.4" opacity="0.35">
      <line x1="-44" y1="-48" x2="-44" y2="-16"></line><line x1="-44" y1="-48" x2="-22" y2="-16"></line><line x1="-44" y1="-48" x2="0" y2="-16"></line>
      <line x1="-22" y1="-48" x2="-44" y2="-16"></line><line x1="-22" y1="-48" x2="-22" y2="-16"></line><line x1="-22" y1="-48" x2="0" y2="-16"></line><line x1="-22" y1="-48" x2="22" y2="-16"></line>
      <line x1="0" y1="-48" x2="-22" y2="-16"></line><line x1="0" y1="-48" x2="0" y2="-16"></line><line x1="0" y1="-48" x2="22" y2="-16"></line>
      <line x1="22" y1="-48" x2="0" y2="-16"></line><line x1="22" y1="-48" x2="22" y2="-16"></line><line x1="22" y1="-48" x2="44" y2="-16"></line>
      <line x1="44" y1="-48" x2="22" y2="-16"></line><line x1="44" y1="-48" x2="44" y2="-16"></line>
      <line x1="-44" y1="-16" x2="-44" y2="16"></line><line x1="-44" y1="-16" x2="-22" y2="16"></line>
      <line x1="-22" y1="-16" x2="-44" y2="16"></line><line x1="-22" y1="-16" x2="-22" y2="16"></line><line x1="-22" y1="-16" x2="0" y2="16"></line>
      <line x1="0" y1="-16" x2="-22" y2="16"></line><line x1="0" y1="-16" x2="0" y2="16"></line><line x1="0" y1="-16" x2="22" y2="16"></line>
      <line x1="22" y1="-16" x2="0" y2="16"></line><line x1="22" y1="-16" x2="22" y2="16"></line><line x1="22" y1="-16" x2="44" y2="16"></line>
      <line x1="44" y1="-16" x2="22" y2="16"></line><line x1="44" y1="-16" x2="44" y2="16"></line>
      <line x1="-44" y1="16" x2="-44" y2="48"></line><line x1="-44" y1="16" x2="-22" y2="48"></line>
      <line x1="-22" y1="16" x2="-44" y2="48"></line><line x1="-22" y1="16" x2="-22" y2="48"></line><line x1="-22" y1="16" x2="0" y2="48"></line>
      <line x1="0" y1="16" x2="-22" y2="48"></line><line x1="0" y1="16" x2="0" y2="48"></line><line x1="0" y1="16" x2="22" y2="48"></line>
      <line x1="22" y1="16" x2="0" y2="48"></line><line x1="22" y1="16" x2="22" y2="48"></line><line x1="22" y1="16" x2="44" y2="48"></line>
      <line x1="44" y1="16" x2="22" y2="48"></line><line x1="44" y1="16" x2="44" y2="48"></line>
    </g>
    
    <g stroke="#8a3a1f" stroke-width="1.3" opacity="0.9">
      <line x1="-22" y1="-48" x2="0" y2="-16"></line>
      <line x1="0" y1="-16" x2="22" y2="16"></line>
      <line x1="22" y1="16" x2="0" y2="48"></line>
      <line x1="22" y1="-48" x2="0" y2="-16"></line>
    </g>
    <g fill="#8a3a1f">
      <circle cx="0" cy="-16" r="3.4"></circle>
      <circle cx="22" cy="16" r="3.4"></circle>
    </g>

    
    <text x="0" y="78" text-anchor="middle" font-family="JetBrains Mono, monospace" font-size="8" fill="#8a7b66" letter-spacing="0.12em">data → forecast → policy</text>
  </g>

  
  <g stroke="#5a4632" stroke-width="0.9" fill="none" opacity="0.7">
    <path d="M104 110 L 218 198"></path>
    <path d="M104 250 L 218 250"></path>
    <path d="M104 390 L 218 302"></path>
  </g>
  <g fill="#5a4632" opacity="0.85">
    <polygon points="216 192 220 200 224 192"></polygon>
    <polygon points="218 246 218 254 226 250"></polygon>
    <polygon points="222 296 220 304 214 298"></polygon>
  </g>

  
  <g stroke="#8a3a1f" stroke-width="0.9" fill="none" opacity="0.85">
    <path d="M380 198 L 496 110"></path>
    <path d="M380 250 L 496 250"></path>
    <path d="M380 302 L 496 390"></path>
  </g>
  <g fill="#8a3a1f">
    <polygon points="490 116 498 110 498 118"></polygon>
    <polygon points="488 246 496 250 488 254"></polygon>
    <polygon points="490 384 498 390 488 392"></polygon>
  </g>

  
  <g font-family="Inter, sans-serif" font-size="9" fill="#8a7b66" letter-spacing="0.04em">
    <text x="300" y="496" text-anchor="middle">Bridging multi-domain data with grid-scale forecasting, dispatch, and human-grid interfaces.</text>
  </g>
</svg>